<svg width="18" height="20" viewBox="0 0 18 20" fill="none" xmlns="http://www.w3.org/2000/svg">
<path fill-rule="evenodd" clip-rule="evenodd" d="M1.81408 15.8406C1.99143 15.8406 2.18567 15.7886 2.38835 15.6586V6.54246C2.38835 6.04853 2.4728 5.89255 2.88661 5.64991L10.597 1.09185C10.5885 0.407279 10.1578 0 9.59203 0C9.32178 0 9.03465 0.0866551 8.73063 0.259965L1.7803 4.36742C0.876677 4.90468 0.75 5.10399 0.75 6.19584V14.3501C0.75 15.234 1.17226 15.8406 1.81408 15.8406ZM5.23435 17.8683C5.4117 17.8683 5.61438 17.8163 5.80862 17.6863V8.56153C5.80862 8.05893 5.88462 7.92894 6.30688 7.67764L14.0173 3.11958C14.0173 2.43501 13.5866 2.02773 13.0038 2.02773C12.7421 2.02773 12.4549 2.10572 12.1509 2.27903L5.19213 6.39515C4.2885 6.92374 4.16182 7.14038 4.16182 8.22357V16.3778C4.16182 17.2704 4.60941 17.8683 5.23435 17.8683ZM8.86575 20C9.18666 20 9.58358 19.87 10.0227 19.6101L16.6015 15.7279C17.4629 15.2166 17.75 14.7574 17.75 13.6915L17.7416 5.90121C17.7416 4.75737 17.3109 4.15078 16.593 4.15078C16.2721 4.15078 15.8921 4.28076 15.4614 4.53206L8.87419 8.43154C7.98746 8.96014 7.72566 9.41941 7.72566 10.4679V18.2582C7.72566 19.3761 8.13947 20 8.86575 20ZM9.44001 17.9463C9.38934 17.9376 9.3809 17.9116 9.3809 17.851L9.44846 10.5373C9.44846 10.234 9.53291 10.078 9.78626 9.92201L15.9343 6.21317C15.9596 6.19584 15.985 6.18717 16.0188 6.19584C16.0525 6.19584 16.0779 6.2305 16.0779 6.29116L16.0356 13.6308C16.0356 13.8908 15.9512 14.0901 15.6978 14.2374L9.52447 17.9289C9.49069 17.9463 9.46535 17.9549 9.44001 17.9463Z" fill="#1A1A1A"/>
</svg>
