<svg width="21" height="18" viewBox="0 0 21 18" fill="none" xmlns="http://www.w3.org/2000/svg">
<path fill-rule="evenodd" clip-rule="evenodd" d="M10.25 18C10.4615 18 10.7636 17.8627 10.9851 17.7353C16.6548 14.2059 20.25 10.098 20.25 5.92157C20.25 2.45098 17.8029 0 14.54 0C12.677 0 11.1664 0.862745 10.25 2.18627C9.35373 0.872549 7.82301 0 5.95997 0C2.69713 0 0.25 2.45098 0.25 5.92157C0.25 10.098 3.84517 14.2059 9.52492 17.7353C9.7364 17.8627 10.0385 18 10.25 18ZM10.25 16.3431C10.2097 16.3431 10.1392 16.2941 10.0486 16.2255C5.82905 13.5 1.87135 9.56863 1.87135 5.92157C1.87135 3.31373 3.60347 1.57843 5.93983 1.57843C7.83308 1.57843 8.9207 2.72549 9.56521 3.70588C9.83711 4.09804 10.0083 4.20588 10.25 4.20588C10.4917 4.20588 10.6427 4.08824 10.9348 3.70588C11.6297 2.7451 12.677 1.57843 14.5602 1.57843C16.8965 1.57843 18.6287 3.31373 18.6287 5.92157C18.6287 9.56863 14.6709 13.5 10.4615 16.2255C10.3608 16.2941 10.2903 16.3431 10.25 16.3431Z" fill="#1A1A1A"/>
</svg>
