<svg width="23" height="20" viewBox="0 0 23 20" fill="none" xmlns="http://www.w3.org/2000/svg">
<path d="M0.5 9.09908C0.5 9.47696 0.794931 9.83641 1.29263 9.83641C1.55069 9.83641 1.76267 9.69816 1.95622 9.54147L3.15438 8.52765V17.3203C3.15438 18.6106 3.91936 19.3571 5.23733 19.3571H17.7074C19.0161 19.3571 19.7811 18.6106 19.7811 17.3203V8.46313L21.0622 9.54147C21.2465 9.69816 21.4585 9.83641 21.7166 9.83641C22.1498 9.83641 22.5 9.56912 22.5 9.12673C22.5 8.85023 22.4078 8.6659 22.2143 8.5C19.0169 5.81126 15.8006 3.14348 12.6198 0.435484C11.9378 -0.145161 11.0899 -0.145161 10.3986 0.435484L0.794931 8.5C0.592166 8.6659 0.5 8.8871 0.5 9.09908ZM5.55069 17.8733C4.96083 17.8733 4.63825 17.5415 4.63825 16.9424V7.28341L11.182 1.79954C11.3848 1.61521 11.6336 1.61521 11.8364 1.79954L18.2972 7.21889V16.9424C18.2972 17.5415 17.9747 17.8733 17.394 17.8733C13.0258 17.8733 9.98527 17.8733 5.55069 17.8733Z" fill="#1A1A1A"/>
</svg>
