<svg width="32" height="32" viewBox="0 0 32 32" fill="none" xmlns="http://www.w3.org/2000/svg">
<g id="Icons / ic-support">
<g id="Support">
<path fill-rule="evenodd" clip-rule="evenodd" d="M16.5702 2.66663C20.4173 2.66663 23.5674 5.74664 23.7188 9.5634L23.7245 9.851L23.7236 10.7135L24.7308 10.7146C25.6567 10.7146 26.4308 11.3759 26.6002 12.2481L26.6258 12.4253L26.6346 12.6072V16.1315C26.6346 17.1133 25.8777 17.9235 24.9138 18.0154L24.7308 18.0241L22.6778 18.024L22.5361 18.2362C22.0685 18.899 21.4835 19.5225 20.8162 20.0823L20.4758 20.3569L20.237 20.5341L20.2396 20.5972C20.3155 21.5313 20.9501 22.2554 21.8276 22.4129L22.0063 22.4367L22.1909 22.4448C26.9028 22.4448 29.3333 24.0481 29.3333 28.2823C29.3333 28.8628 28.86 29.3333 28.276 29.3333C27.6923 29.3333 27.2189 28.8627 27.2189 28.2823C27.2189 25.3155 25.8413 24.5465 22.1909 24.5465C21.6262 24.5465 21.0769 24.4311 20.57 24.2114L20.4688 24.1625L16.3611 27.1211C16.0752 27.336 15.7028 27.3893 15.3734 27.2739L15.2351 27.2142L15.1044 27.1336L11.1785 24.3066L11.0291 24.3606C10.8335 24.4219 10.6331 24.4684 10.4293 24.4995L10.1212 24.5347L9.80901 24.5465C6.15886 24.5465 4.78114 25.3155 4.78114 28.2823C4.78114 28.8627 4.30776 29.3333 3.72401 29.3333C3.14017 29.3333 2.66667 28.8627 2.66667 28.2823C2.66667 24.0481 5.09729 22.4448 9.80901 22.4448C10.772 22.4448 11.586 21.7421 11.7413 20.8178L11.7449 20.7868L11.5128 20.6297C10.6697 20.0301 9.93541 19.329 9.36921 18.564L9.13701 18.2323L9.00777 18.024L7.2692 18.0241C6.34334 18.0241 5.56918 17.3627 5.39983 16.4906L5.37416 16.3135L5.36543 16.1315V12.6072C5.36543 11.6254 6.12225 10.8152 7.08617 10.7233L7.2692 10.7146L8.2754 10.7135L8.27577 9.8508C8.27577 6.09726 11.1769 2.98808 14.8509 2.69002L15.1425 2.67236L15.4297 2.66663H16.5702ZM18.3883 21.9475L18.3007 21.693L18.2861 21.7015C17.3745 22.13 16.5174 22.3742 15.9025 22.3742C15.3829 22.3742 14.7194 22.2282 14.0052 21.9623L13.6549 21.824L13.5627 22.068C13.4525 22.3273 13.3153 22.5742 13.1537 22.805L12.991 23.0195L15.7229 24.9862L18.8157 22.7602L18.801 22.7388C18.6345 22.4908 18.4961 22.2255 18.3883 21.9475ZM15.8638 9.72233L15.7307 9.82504C14.2177 10.9206 12.3734 11.4801 10.4808 11.3877L10.3882 11.3801L10.3781 16.007C10.653 16.88 11.2836 17.7268 12.1648 18.4738L12.4365 18.6948C13.6415 19.6356 15.0983 20.2728 15.9024 20.2728C16.7256 20.2728 18.3699 19.4532 19.648 18.3158L19.9021 18.081L19.9577 18.024H18.2374L18.2079 18.06C17.9547 18.3249 17.6157 18.496 17.2456 18.5394L17.0582 18.5504C16.1822 18.5504 15.472 17.8443 15.472 16.9736C15.472 16.1024 16.1821 15.3963 17.0582 15.3963C17.5003 15.3963 17.9125 15.5777 18.2079 15.8869L18.2388 15.9224H21.6095V11.3591L21.5145 11.3706C19.5519 11.5276 17.6021 10.9836 16.0125 9.8361L15.8638 9.72233ZM8.67385 13.6133C8.67385 13.1732 8.31706 12.8164 7.87694 12.8164C7.43682 12.8164 7.08003 13.1732 7.08003 13.6133V15.1241C7.08003 15.5642 7.43682 15.921 7.87694 15.921C8.31706 15.921 8.67385 15.5642 8.67385 15.1241V13.6133ZM24.917 13.612C24.917 13.1726 24.5608 12.8164 24.1214 12.8164C23.682 12.8164 23.3258 13.1726 23.3258 13.612V15.1254C23.3258 15.5648 23.682 15.921 24.1214 15.921C24.5608 15.921 24.917 15.5648 24.917 15.1254V13.612ZM18.8407 5.31478L18.8145 5.42039C18.5401 6.39821 18.0864 7.30836 17.4789 8.11281L17.3852 8.22823L17.4358 8.26447C18.6268 9.05798 20.0607 9.41294 21.4898 9.26596L21.5739 9.25482L21.5705 9.21592C21.3713 7.61996 20.427 6.21881 19.0584 5.43196L18.8407 5.31478ZM16.5702 4.76855H15.4297C12.9418 4.76855 10.8596 6.5999 10.4595 9.0093L10.4211 9.28095L10.4521 9.28413C13.2915 9.48061 15.8933 7.6943 16.7299 5.02691L16.8017 4.77393L16.5702 4.76855Z" fill="#7B8E98"/>
<path d="M23.7188 9.5634L23.9688 9.55845L23.9686 9.55349L23.7188 9.5634ZM23.7245 9.851L23.9745 9.85124L23.9744 9.84605L23.7245 9.851ZM23.7236 10.7135L23.4736 10.7132L23.4734 10.9632L23.7233 10.9635L23.7236 10.7135ZM24.7308 10.7146L24.7305 10.9646H24.7308V10.7146ZM26.6002 12.2481L26.8479 12.2123L26.8456 12.2005L26.6002 12.2481ZM26.6258 12.4253L26.8756 12.4133L26.875 12.4013L26.8733 12.3894L26.6258 12.4253ZM26.6346 12.6072H26.8849L26.8843 12.5952L26.6346 12.6072ZM24.9138 18.0154L24.9257 18.2654L24.9376 18.2642L24.9138 18.0154ZM24.7308 18.0241L24.7308 18.2743L24.7427 18.2738L24.7308 18.0241ZM22.6778 18.024L22.6778 17.774L22.544 17.774L22.4698 17.8852L22.6778 18.024ZM22.5361 18.2362L22.7405 18.3804L22.7441 18.375L22.5361 18.2362ZM20.8162 20.0823L20.9731 20.277L20.9768 20.2739L20.8162 20.0823ZM20.4758 20.3569L20.6249 20.5578L20.6327 20.5515L20.4758 20.3569ZM20.237 20.5341L20.088 20.3334L19.9816 20.4123L19.9872 20.5447L20.237 20.5341ZM20.2396 20.5972L19.9897 20.6078L19.9905 20.6174L20.2396 20.5972ZM21.8276 22.4129L21.7834 22.6592L21.7946 22.6607L21.8276 22.4129ZM22.0063 22.4367L21.9733 22.6845L21.9843 22.686L21.9954 22.6865L22.0063 22.4367ZM22.1909 22.4448L22.1799 22.6948H22.1909V22.4448ZM20.57 24.2114L20.4612 24.4367L20.4706 24.4408L20.57 24.2114ZM20.4688 24.1625L20.5775 23.9374L20.4435 23.8727L20.3227 23.9597L20.4688 24.1625ZM16.3611 27.1211L16.215 26.9182L16.2109 26.9212L16.3611 27.1211ZM15.3734 27.2739L15.2741 27.5034L15.2823 27.5069L15.2908 27.5099L15.3734 27.2739ZM15.2351 27.2142L15.104 27.427L15.1194 27.4365L15.1359 27.4436L15.2351 27.2142ZM15.1044 27.1336L14.9584 27.3365L14.9656 27.3417L14.9733 27.3465L15.1044 27.1336ZM11.1785 24.3066L11.3246 24.1037L11.2176 24.0266L11.0935 24.0715L11.1785 24.3066ZM11.0291 24.3606L11.1039 24.5994L11.1141 24.5957L11.0291 24.3606ZM10.4293 24.4995L10.4577 24.7481L10.4671 24.7466L10.4293 24.4995ZM10.1212 24.5347L10.1306 24.7845L10.1401 24.7841L10.1495 24.7831L10.1212 24.5347ZM9.80901 24.5465V24.7966L9.81846 24.7963L9.80901 24.5465ZM11.7413 20.8178L11.9881 20.8593L11.9896 20.847L11.7413 20.8178ZM11.7449 20.7868L11.9932 20.816L12.011 20.6651L11.8851 20.5798L11.7449 20.7868ZM11.5128 20.6297L11.3679 20.8335L11.3727 20.8367L11.5128 20.6297ZM9.36921 18.564L9.16434 18.7074L9.16826 18.7127L9.36921 18.564ZM9.13701 18.2323L8.92425 18.3643L8.93222 18.3757L9.13701 18.2323ZM9.00777 18.024L9.22021 17.8922L9.14687 17.774L9.00776 17.774L9.00777 18.024ZM7.2692 18.0241V18.2741H7.26921L7.2692 18.0241ZM5.39983 16.4906L5.15213 16.5265L5.15442 16.5382L5.39983 16.4906ZM5.37416 16.3135L5.12445 16.3255L5.12503 16.3375L5.12675 16.3493L5.37416 16.3135ZM5.36543 16.1315H5.11514L5.11572 16.1435L5.36543 16.1315ZM7.08617 10.7233L7.07431 10.4733L7.06244 10.4744L7.08617 10.7233ZM7.2692 10.7146L7.26892 10.4643L7.25735 10.4649L7.2692 10.7146ZM8.2754 10.7135L8.27568 10.9635L8.5253 10.9632L8.5254 10.7136L8.2754 10.7135ZM8.27577 9.8508L8.52577 9.8509V9.8508H8.27577ZM14.8509 2.69002L14.8358 2.44042L14.8307 2.44083L14.8509 2.69002ZM15.1425 2.67236L15.1375 2.42221L15.1274 2.42282L15.1425 2.67236ZM15.4297 2.66663V2.41658L15.4247 2.41668L15.4297 2.66663ZM18.3883 21.9475L18.1518 22.029L18.1552 22.0378L18.3883 21.9475ZM18.3007 21.693L18.537 21.6116L18.4378 21.3235L18.1746 21.4771L18.3007 21.693ZM18.2861 21.7015L18.3925 21.9278L18.4025 21.923L18.4122 21.9174L18.2861 21.7015ZM14.0052 21.9623L13.9134 22.1948L13.918 22.1965L14.0052 21.9623ZM13.6549 21.824L13.7467 21.5914L13.5106 21.4983L13.421 21.7357L13.6549 21.824ZM13.5627 22.068L13.793 22.1659L13.7966 22.1563L13.5627 22.068ZM13.1537 22.805L13.353 22.9561L13.3585 22.9484L13.1537 22.805ZM12.991 23.0195L12.7918 22.8684L12.6369 23.0726L12.8449 23.2224L12.991 23.0195ZM15.7229 24.9862L15.5768 25.1891L15.7229 25.2943L15.8689 25.1891L15.7229 24.9862ZM18.8157 22.7602L18.9617 22.9631L19.1603 22.8202L19.0217 22.6186L18.8157 22.7602ZM18.801 22.7388L18.5934 22.8781L18.595 22.8804L18.801 22.7388ZM15.8638 9.72233L16.0157 9.52377L15.8632 9.40705L15.7111 9.52441L15.8638 9.72233ZM15.7307 9.82504L15.8774 10.0276L15.8835 10.023L15.7307 9.82504ZM10.4808 11.3877L10.4601 11.637L10.4686 11.6375L10.4808 11.3877ZM10.3882 11.3801L10.4089 11.1309L10.1388 11.1085L10.1382 11.3795L10.3882 11.3801ZM10.3781 16.007L10.1281 16.0064L10.128 16.0452L10.1396 16.0821L10.3781 16.007ZM12.1648 18.4738L12.0031 18.6645L12.007 18.6677L12.1648 18.4738ZM12.4365 18.6948L12.2788 18.8888L12.2827 18.8918L12.4365 18.6948ZM19.648 18.3158L19.8142 18.5026L19.8177 18.4994L19.648 18.3158ZM19.9021 18.081L20.072 18.2648L20.081 18.2556L19.9021 18.081ZM19.9577 18.024L20.1366 18.1987L20.5514 17.774H19.9577V18.024ZM18.2374 18.024V17.774H18.1193L18.0443 17.8653L18.2374 18.024ZM18.2079 18.06L18.3887 18.2327L18.3951 18.2259L18.401 18.2187L18.2079 18.06ZM17.2456 18.5394L17.2602 18.789L17.2675 18.7886L17.2748 18.7877L17.2456 18.5394ZM17.0582 18.5504V18.8004H17.0655L17.0728 18.7999L17.0582 18.5504ZM18.2079 15.8869L18.3969 15.7228L18.3887 15.7143L18.2079 15.8869ZM18.2388 15.9224L18.05 16.0863L18.1247 16.1724H18.2388V15.9224ZM21.6095 15.9224V16.1724H21.8595V15.9224H21.6095ZM21.6095 11.3591H21.8595V11.0771L21.5795 11.1109L21.6095 11.3591ZM21.5145 11.3706L21.5345 11.62L21.5445 11.6188L21.5145 11.3706ZM16.0125 9.8361L15.8606 10.0347L15.8662 10.0388L16.0125 9.8361ZM18.8407 5.31478L18.9592 5.09465L18.6758 4.94205L18.5981 5.25447L18.8407 5.31478ZM18.8145 5.42039L19.0553 5.48796L19.0571 5.48069L18.8145 5.42039ZM17.4789 8.11281L17.6731 8.27045L17.6784 8.26347L17.4789 8.11281ZM17.3852 8.22823L17.1911 8.07069L17.0238 8.27687L17.2396 8.43148L17.3852 8.22823ZM17.4358 8.26447L17.2902 8.46783L17.2972 8.47252L17.4358 8.26447ZM21.4898 9.26596L21.5154 9.51476L21.5227 9.5138L21.4898 9.26596ZM21.5739 9.25482L21.6068 9.50265L21.8442 9.47118L21.8229 9.23259L21.5739 9.25482ZM21.5705 9.21592L21.8196 9.19368L21.8185 9.18496L21.5705 9.21592ZM19.0584 5.43196L19.1831 5.21514L19.1769 5.21183L19.0584 5.43196ZM16.5702 4.76855L16.576 4.51855H16.5702V4.76855ZM10.4595 9.0093L10.2128 8.96833L10.2119 8.97436L10.4595 9.0093ZM10.4211 9.28095L10.1736 9.24601L10.1373 9.50312L10.3956 9.52964L10.4211 9.28095ZM10.4521 9.28413L10.4265 9.53296L10.4348 9.53353L10.4521 9.28413ZM16.7299 5.02691L16.9686 5.10176L16.9704 5.09513L16.7299 5.02691ZM16.8017 4.77393L17.0422 4.84215L17.1303 4.53149L16.8075 4.524L16.8017 4.77393ZM16.5702 2.91663C20.2812 2.91663 23.3228 5.88884 23.469 9.57331L23.9686 9.55349C23.8119 5.60445 20.5533 2.41663 16.5702 2.41663V2.91663ZM23.4688 9.56835L23.4745 9.85595L23.9744 9.84605L23.9687 9.55845L23.4688 9.56835ZM23.4745 9.85076L23.4736 10.7132L23.9736 10.7137L23.9745 9.85124L23.4745 9.85076ZM23.7233 10.9635L24.7305 10.9646L24.7311 10.4646L23.7239 10.4635L23.7233 10.9635ZM24.7308 10.9646C25.5355 10.9646 26.208 11.5396 26.3548 12.2958L26.8456 12.2005C26.6537 11.2122 25.7779 10.4646 24.7308 10.4646V10.9646ZM26.3528 12.284L26.3784 12.4611L26.8733 12.3894L26.8476 12.2123L26.3528 12.284ZM26.3761 12.4373L26.3849 12.6192L26.8843 12.5952L26.8756 12.4133L26.3761 12.4373ZM26.3846 12.6072V16.1315H26.8846V12.6072H26.3846ZM26.3846 16.1315C26.3846 16.9818 25.7282 17.6866 24.8901 17.7665L24.9376 18.2642C26.0271 18.1603 26.8846 17.2447 26.8846 16.1315H26.3846ZM24.902 17.7657L24.719 17.7743L24.7427 18.2738L24.9257 18.2651L24.902 17.7657ZM24.7308 17.7741L22.6778 17.774L22.6777 18.274L24.7308 18.2741L24.7308 17.7741ZM22.4698 17.8852L22.3282 18.0975L22.7441 18.375L22.8857 18.1627L22.4698 17.8852ZM22.3318 18.0921C21.8781 18.7353 21.3083 19.3432 20.6555 19.8908L20.9768 20.2739C21.6588 19.7018 22.259 19.0627 22.7404 18.3803L22.3318 18.0921ZM20.6592 19.8877L20.3188 20.1623L20.6327 20.5515L20.9731 20.2769L20.6592 19.8877ZM20.3268 20.1561L20.088 20.3334L20.386 20.7349L20.6248 20.5576L20.3268 20.1561ZM19.9872 20.5447L19.9899 20.6078L20.4894 20.5866L20.4867 20.5235L19.9872 20.5447ZM19.9905 20.6174C20.0749 21.6568 20.7867 22.4801 21.7835 22.659L21.8718 22.1668C21.1134 22.0307 20.5562 21.4057 20.4888 20.577L19.9905 20.6174ZM21.7946 22.6607L21.9733 22.6845L22.0394 22.1889L21.8607 22.1651L21.7946 22.6607ZM21.9954 22.6865L22.18 22.6946L22.2018 22.1951L22.0173 22.187L21.9954 22.6865ZM22.1909 22.6948C24.5279 22.6948 26.245 23.0943 27.3757 23.9731C28.4921 24.8409 29.0833 26.2142 29.0833 28.2823H29.5833C29.5833 26.1162 28.9593 24.5708 27.6825 23.5784C26.4199 22.597 24.5657 22.1948 22.1909 22.1948V22.6948ZM29.0833 28.2823C29.0833 28.7233 28.7233 29.0833 28.276 29.0833V29.5833C28.9966 29.5833 29.5833 29.0023 29.5833 28.2823H29.0833ZM28.276 29.0833C27.829 29.0833 27.4689 28.7232 27.4689 28.2823H26.9689C26.9689 29.0021 27.5556 29.5833 28.276 29.5833V29.0833ZM27.4689 28.2823C27.4689 26.7655 27.1163 25.7293 26.2176 25.0973C25.3463 24.4846 24.0158 24.2965 22.1909 24.2965V24.7965C24.0164 24.7965 25.1998 24.9928 25.93 25.5063C26.6327 26.0005 26.9689 26.8322 26.9689 28.2823H27.4689ZM22.1909 24.2965C21.6604 24.2965 21.145 24.1881 20.6694 23.982L20.4706 24.4408C21.0088 24.674 21.5919 24.7965 22.1909 24.7965V24.2965ZM20.6787 23.9863L20.5775 23.9374L20.3601 24.3876L20.4613 24.4365L20.6787 23.9863ZM20.3227 23.9597L16.215 26.9182L16.5072 27.3239L20.6149 24.3654L20.3227 23.9597ZM16.2109 26.9212C15.9927 27.0852 15.7079 27.1262 15.456 27.038L15.2908 27.5099C15.6977 27.6524 16.1576 27.5868 16.5113 27.3209L16.2109 26.9212ZM15.4726 27.0445L15.3344 26.9847L15.1359 27.4436L15.2741 27.5034L15.4726 27.0445ZM15.3663 27.0013L15.2356 26.9208L14.9733 27.3465L15.104 27.427L15.3663 27.0013ZM15.2505 26.9307L11.3246 24.1037L11.0324 24.5094L14.9584 27.3365L15.2505 26.9307ZM11.0935 24.0715L10.9441 24.1255L11.1141 24.5957L11.2635 24.5417L11.0935 24.0715ZM10.9543 24.122C10.7708 24.1795 10.5828 24.2231 10.3915 24.2524L10.4671 24.7466C10.6834 24.7136 10.8961 24.6642 11.1038 24.5992L10.9543 24.122ZM10.4009 24.2511L10.0929 24.2863L10.1495 24.7831L10.4576 24.7479L10.4009 24.2511ZM10.1118 24.2848L9.79956 24.2966L9.81846 24.7963L10.1306 24.7845L10.1118 24.2848ZM9.80901 24.2965C7.98424 24.2965 6.65372 24.4846 5.78246 25.0973C4.88376 25.7294 4.53114 26.7655 4.53114 28.2823H5.03114C5.03114 26.8323 5.36738 26.0005 6.07008 25.5063C6.80022 24.9928 7.98362 24.7965 9.80901 24.7965V24.2965ZM4.53114 28.2823C4.53114 28.7233 4.17107 29.0833 3.72401 29.0833V29.5833C4.44445 29.5833 5.03114 29.0022 5.03114 28.2823H4.53114ZM3.72401 29.0833C3.27681 29.0833 2.91667 28.7232 2.91667 28.2823H2.41667C2.41667 29.0022 3.00353 29.5833 3.72401 29.5833V29.0833ZM2.91667 28.2823C2.91667 26.2142 3.50792 24.8409 4.62437 23.9731C5.75501 23.0943 7.47204 22.6948 9.80901 22.6948V22.1948C7.43425 22.1948 5.58012 22.597 4.31752 23.5784C3.04073 24.5708 2.41667 26.1162 2.41667 28.2823H2.91667ZM9.80901 22.6948C10.8947 22.6948 11.8124 21.9033 11.9878 20.8593L11.4947 20.7764C11.3596 21.5808 10.6494 22.1948 9.80901 22.1948V22.6948ZM11.9896 20.847L11.9932 20.816L11.4966 20.7576L11.493 20.7886L11.9896 20.847ZM11.8851 20.5798L11.653 20.4227L11.3727 20.8367L11.6048 20.9939L11.8851 20.5798ZM11.6577 20.426C10.8331 19.8396 10.1187 19.1564 9.57016 18.4152L9.16826 18.7127C9.75211 19.5015 10.5062 20.2206 11.3679 20.8334L11.6577 20.426ZM9.57401 18.4206L9.34181 18.0889L8.93222 18.3757L9.16441 18.7073L9.57401 18.4206ZM9.34945 18.1005L9.22021 17.8922L8.79533 18.1558L8.92458 18.3641L9.34945 18.1005ZM9.00776 17.774L7.26919 17.7741L7.26921 18.2741L9.00778 18.274L9.00776 17.774ZM7.2692 17.7741C6.46451 17.7741 5.79206 17.199 5.64525 16.4429L5.15442 16.5382C5.34629 17.5265 6.22218 18.2741 7.2692 18.2741V17.7741ZM5.64725 16.4547L5.62158 16.2776L5.12675 16.3493L5.15242 16.5264L5.64725 16.4547ZM5.62388 16.3015L5.61514 16.1196L5.11572 16.1435L5.12445 16.3255L5.62388 16.3015ZM5.61543 16.1315V12.6072H5.11543V16.1315H5.61543ZM5.61543 12.6072C5.61543 11.7568 6.27172 11.0521 7.1099 10.9722L7.06244 10.4744C5.97278 10.5783 5.11543 11.4939 5.11543 12.6072H5.61543ZM7.09802 10.973L7.28105 10.9643L7.25735 10.4649L7.07432 10.4736L7.09802 10.973ZM7.26948 10.9646L8.27568 10.9635L8.27512 10.4635L7.26892 10.4646L7.26948 10.9646ZM8.5254 10.7136L8.52577 9.8509L8.02577 9.85069L8.0254 10.7134L8.5254 10.7136ZM8.52577 9.8508C8.52577 6.22763 11.3268 3.22674 14.8711 2.9392L14.8307 2.44083C11.027 2.74942 8.02577 5.96689 8.02577 9.8508H8.52577ZM14.866 2.93956L15.1576 2.92191L15.1274 2.42282L14.8358 2.44047L14.866 2.93956ZM15.1475 2.92231L15.4347 2.91658L15.4247 2.41668L15.1376 2.42241L15.1475 2.92231ZM15.4297 2.91663H16.5702V2.41663H15.4297V2.91663ZM18.6247 21.866L18.537 21.6116L18.0643 21.7745L18.152 22.0289L18.6247 21.866ZM18.1746 21.4771L18.1601 21.4856L18.4122 21.9174L18.4267 21.9089L18.1746 21.4771ZM18.1798 21.4753C17.282 21.8973 16.4639 22.1242 15.9025 22.1242V22.6242C16.5709 22.6242 17.4671 22.3627 18.3925 21.9278L18.1798 21.4753ZM15.9025 22.1242C15.4238 22.1242 14.7914 21.9883 14.0925 21.728L13.918 22.1965C14.6474 22.4682 15.3421 22.6242 15.9025 22.6242V22.1242ZM14.097 21.7297L13.7467 21.5914L13.5631 22.0565L13.9135 22.1948L14.097 21.7297ZM13.421 21.7357L13.3288 21.9797L13.7966 22.1563L13.8888 21.9123L13.421 21.7357ZM13.3327 21.9702C13.2293 22.2133 13.1006 22.445 12.9489 22.6616L13.3585 22.9484C13.53 22.7034 13.6757 22.4412 13.7928 22.1659L13.3327 21.9702ZM12.9545 22.6539L12.7918 22.8684L13.1902 23.1705L13.3529 22.956L12.9545 22.6539ZM12.8449 23.2224L15.5768 25.1891L15.869 24.7833L13.1371 22.8166L12.8449 23.2224ZM15.8689 25.1891L18.9617 22.9631L18.6697 22.5573L15.5769 24.7833L15.8689 25.1891ZM19.0217 22.6186L19.007 22.5972L18.595 22.8804L18.6097 22.9018L19.0217 22.6186ZM19.0086 22.5995C18.8523 22.3667 18.7225 22.1178 18.6214 21.8571L18.1552 22.0378C18.2697 22.3332 18.4167 22.6149 18.5934 22.8781L19.0086 22.5995ZM15.7111 9.52441L15.578 9.62712L15.8835 10.023L16.0166 9.92025L15.7111 9.52441ZM15.5841 9.62255C14.1166 10.6852 12.3283 11.2276 10.493 11.138L10.4686 11.6375C12.4186 11.7326 14.3187 11.1561 15.8774 10.0275L15.5841 9.62255ZM10.5015 11.1386L10.4089 11.1309L10.3675 11.6292L10.4601 11.6369L10.5015 11.1386ZM10.1382 11.3795L10.1281 16.0064L10.6281 16.0075L10.6382 11.3806L10.1382 11.3795ZM10.1396 16.0821C10.433 17.0135 11.0984 17.8976 12.0031 18.6645L12.3264 18.2831C11.4687 17.5561 10.8731 16.7465 10.6165 15.9319L10.1396 16.0821ZM12.007 18.6677L12.2788 18.8887L12.5943 18.5008L12.3225 18.2798L12.007 18.6677ZM12.2827 18.8918C12.9011 19.3747 13.5837 19.7795 14.2172 20.0646C14.8439 20.3466 15.4477 20.5228 15.9024 20.5228V20.0228C15.5531 20.0228 15.0263 19.8804 14.4224 19.6086C13.8252 19.3399 13.177 18.9557 12.5904 18.4977L12.2827 18.8918ZM15.9024 20.5228C16.3762 20.5228 17.0374 20.2942 17.7191 19.9431C18.4108 19.5867 19.1589 19.0857 19.8142 18.5025L19.4818 18.129C18.859 18.6833 18.1459 19.1608 17.4902 19.4986C16.8244 19.8415 16.2519 20.0228 15.9024 20.0228V20.5228ZM19.8177 18.4994L20.0718 18.2646L19.7324 17.8974L19.4783 18.1322L19.8177 18.4994ZM20.081 18.2556L20.1366 18.1987L19.7789 17.8494L19.7233 17.9063L20.081 18.2556ZM19.9577 17.774H18.2374V18.274H19.9577V17.774ZM18.0443 17.8653L18.0148 17.9012L18.401 18.2187L18.4306 18.1828L18.0443 17.8653ZM18.0272 17.8872C17.8139 18.1104 17.5284 18.2545 17.2165 18.2911L17.2748 18.7877C17.703 18.7374 18.0955 18.5394 18.3887 18.2327L18.0272 17.8872ZM17.231 18.2899L17.0436 18.3008L17.0728 18.7999L17.2602 18.789L17.231 18.2899ZM17.0582 18.3004C16.3189 18.3004 15.722 17.7049 15.722 16.9736H15.222C15.222 17.9838 16.0455 18.8004 17.0582 18.8004V18.3004ZM15.722 16.9736C15.722 16.2418 16.3188 15.6463 17.0582 15.6463V15.1463C16.0453 15.1463 15.222 15.963 15.222 16.9736H15.722ZM17.0582 15.6463C17.4313 15.6463 17.7784 15.7992 18.0272 16.0596L18.3887 15.7143C18.0467 15.3562 17.5694 15.1463 17.0582 15.1463V15.6463ZM18.0192 16.0508L18.05 16.0863L18.4275 15.7585L18.3967 15.723L18.0192 16.0508ZM18.2388 16.1724H21.6095V15.6724H18.2388V16.1724ZM21.8595 15.9224V11.3591H21.3595V15.9224H21.8595ZM21.5795 11.1109L21.4845 11.1224L21.5445 11.6188L21.6395 11.6073L21.5795 11.1109ZM21.4946 11.1214C19.5909 11.2737 17.7001 10.746 16.1589 9.6334L15.8662 10.0388C17.5041 11.2212 19.513 11.7815 21.5345 11.6198L21.4946 11.1214ZM16.1644 9.63754L16.0157 9.52377L15.7119 9.92089L15.8606 10.0347L16.1644 9.63754ZM6.83003 13.6133V15.1241H7.33003V13.6133H6.83003ZM8.92385 15.1241V13.6133H8.42385V15.1241H8.92385ZM7.87694 16.171C8.45513 16.171 8.92385 15.7023 8.92385 15.1241H8.42385C8.42385 15.4262 8.17899 15.671 7.87694 15.671V16.171ZM6.83003 15.1241C6.83003 15.7023 7.29875 16.171 7.87694 16.171V15.671C7.57489 15.671 7.33003 15.4262 7.33003 15.1241H6.83003ZM7.87694 12.5664C7.29875 12.5664 6.83003 13.0351 6.83003 13.6133H7.33003C7.33003 13.3113 7.57489 13.0664 7.87694 13.0664V12.5664ZM7.87694 13.0664C8.17899 13.0664 8.42385 13.3113 8.42385 13.6133H8.92385C8.92385 13.0351 8.45513 12.5664 7.87694 12.5664V13.0664ZM23.0758 13.612V15.1254H23.5758V13.612H23.0758ZM25.167 15.1254V13.612H24.667V15.1254H25.167ZM24.1214 16.171C24.6989 16.171 25.167 15.7029 25.167 15.1254H24.667C24.667 15.4268 24.4227 15.671 24.1214 15.671V16.171ZM23.0758 15.1254C23.0758 15.7029 23.5439 16.171 24.1214 16.171V15.671C23.8201 15.671 23.5758 15.4268 23.5758 15.1254H23.0758ZM24.1214 12.5664C23.5439 12.5664 23.0758 13.0345 23.0758 13.612H23.5758C23.5758 13.3107 23.8201 13.0664 24.1214 13.0664V12.5664ZM24.1214 13.0664C24.4227 13.0664 24.667 13.3107 24.667 13.612H25.167C25.167 13.0345 24.6989 12.5664 24.1214 12.5664V13.0664ZM18.5981 5.25447L18.5719 5.36008L19.0571 5.48069L19.0833 5.37509L18.5981 5.25447ZM18.5738 5.35284C18.3079 6.30037 17.8682 7.18237 17.2794 7.96215L17.6784 8.26347C18.3045 7.43434 18.7723 6.49604 19.0552 5.48793L18.5738 5.35284ZM17.2848 7.95527L17.1911 8.07069L17.5793 8.38578L17.673 8.27036L17.2848 7.95527ZM17.2396 8.43148L17.2902 8.46772L17.5814 8.06122L17.5308 8.02499L17.2396 8.43148ZM17.2972 8.47252C18.5366 9.2983 20.0285 9.66756 21.5154 9.51465L21.4643 9.01727C20.0928 9.15832 18.717 8.81766 17.5744 8.05642L17.2972 8.47252ZM21.5227 9.5138L21.6068 9.50265L21.5411 9.00699L21.457 9.01813L21.5227 9.5138ZM21.8229 9.23259L21.8195 9.19369L21.3215 9.23816L21.3249 9.27705L21.8229 9.23259ZM21.8185 9.18496C21.6096 7.51063 20.6192 6.04094 19.183 5.21523L18.9338 5.64869C20.2348 6.39668 21.133 7.7293 21.3224 9.24689L21.8185 9.18496ZM19.1769 5.21183L18.9592 5.09465L18.7222 5.53491L18.9399 5.65209L19.1769 5.21183ZM16.5702 4.51855H15.4297V5.01855H16.5702V4.51855ZM15.4297 4.51855C12.8162 4.51855 10.6325 6.44167 10.2128 8.96834L10.7061 9.05025C11.0868 6.75813 13.0675 5.01855 15.4297 5.01855V4.51855ZM10.2119 8.97436L10.1736 9.24601L10.6687 9.31588L10.707 9.04424L10.2119 8.97436ZM10.3956 9.52964L10.4266 9.53282L10.4776 9.03543L10.4467 9.03225L10.3956 9.52964ZM10.4348 9.53353C13.3891 9.73796 16.0971 7.88001 16.9685 5.10173L16.4914 4.9521C15.6895 7.5086 13.194 9.22326 10.4694 9.03472L10.4348 9.53353ZM16.9704 5.09513L17.0422 4.84215L16.5612 4.70571L16.4894 4.9587L16.9704 5.09513ZM16.8075 4.524L16.576 4.51862L16.5644 5.01849L16.7959 5.02386L16.8075 4.524Z" fill="white"/>
</g>
</g>
</svg>
