<svg width="24" height="24" viewBox="0 0 24 24" fill="none" xmlns="http://www.w3.org/2000/svg">
<g id="Icons / ic-user">
<path id="User" fill-rule="evenodd" clip-rule="evenodd" d="M12.0057 12.0108C14.7304 12.0108 16.9513 9.72138 16.9513 6.9352C16.9513 4.17063 14.7418 2 12.0057 2C9.2925 2 7.0601 4.21382 7.0601 6.9568C7.07155 9.73218 9.28105 12.0108 12.0057 12.0108ZM12.0057 10.3801C10.3343 10.3801 8.90326 8.86825 8.90326 6.9568C8.90326 5.07775 10.3114 3.63067 12.0057 3.63067C13.7115 3.63067 15.1082 5.05616 15.1082 6.93521C15.1082 8.84665 13.6886 10.3801 12.0057 10.3801ZM19.1952 22C21.0956 22 22 21.46 22 20.2721C22 17.4428 18.2106 13.3499 12.0057 13.3499C5.78935 13.3499 2 17.4428 2 20.2721C2 21.46 2.90441 22 4.80481 22H19.1952ZM19.7447 20.3693H4.26674C3.96909 20.3693 3.84316 20.2937 3.84316 20.067C3.84316 18.2959 6.751 14.9806 12.0057 14.9806C17.249 14.9806 20.1568 18.2959 20.1568 20.067C20.1568 20.2937 20.0424 20.3693 19.7447 20.3693Z" fill="#7B8E98"/>
</g>
</svg>
