<svg width="19" height="24" viewBox="0 0 19 24" fill="none" xmlns="http://www.w3.org/2000/svg">
<path fill-rule="evenodd" clip-rule="evenodd" d="M10.206 12.5702C11.9944 12.1407 12.8271 14.3482 11.0339 14.805C9.20317 15.2708 8.2651 13.0354 10.206 12.5702ZM9.33692 21.9896L9.37142 21.9611C9.58627 22.0325 10.0214 23.4433 11.5677 23.8607C13.5855 24.4058 15.9191 23.3011 17.1356 21.4161C17.4842 20.8752 18.5724 18.9393 17.6488 18.5564C16.8409 18.2218 16.5213 20.1021 16.0105 20.8673C15.4622 21.6883 14.5108 22.3247 13.5588 22.5486C10.3149 23.312 9.96815 20.5098 9.99781 18.0355C11.6155 17.5509 13.3664 15.4626 13.2599 13.6985C13.1279 11.5145 10.0837 10.8418 8.34923 11.1836C6.06276 11.6349 4.77065 13.1885 5.94656 15.5013C7.27196 18.1051 8.71114 17.5957 8.7765 18.3531C9.01253 21.0755 7.41963 24.0985 4.05408 22.087C3.24371 21.6024 2.68995 20.8891 2.28628 20.0422C2.13619 19.7276 1.90318 18.822 1.77064 18.6798C1.38997 18.2739 0.713347 18.5842 0.735135 19.2013C0.792629 20.8304 2.58101 22.917 4.04864 23.5226C6.07002 24.3574 8.32441 24.1578 9.33692 21.9902V21.9896ZM13.1776 9.56837C12.7122 8.48729 12.2619 7.41166 12.9845 6.25072C13.6502 5.18175 14.9254 5.14363 15.8683 5.87746C17.8425 7.41226 17.8401 11.2278 15.3478 11.0614C16.7138 10.6174 17.1247 9.17756 16.482 7.91681L15.0095 9.03237L15.4991 7.137C13.764 6.70626 13.137 8.0989 13.1776 9.56776V9.56837ZM13.9462 4.12789C9.42528 5.04744 11.5362 13.1232 15.9821 12.3349C20.4848 11.5363 18.4192 3.21802 13.9462 4.12789ZM4.22778 8.87447L2.80796 7.7698C2.39098 8.20719 2.35527 9.03902 2.52957 9.59741C2.73716 10.2623 3.00163 10.4407 3.51606 10.8031C1.00566 10.5956 1.37121 7.36023 2.82188 5.86657C3.56629 5.10068 4.76459 4.80183 5.64698 5.5417C6.59534 6.33542 6.36536 7.6724 6.12328 8.70266C5.72687 8.04324 5.82613 7.21444 4.626 6.96338C3.29031 6.68449 3.88765 7.22835 4.22778 8.87447ZM4.01293 3.85384C-0.683468 4.63062 -0.663495 12.8376 4.02806 12.0754C8.70751 11.3143 8.68633 3.0813 4.01293 3.85384ZM12.5209 0.0280265C11.8467 0.136921 11.7511 0.931243 12.1838 1.21921C12.6226 1.5108 13.7319 0.89555 14.8994 2.63241C15.1862 3.05952 15.3073 3.73345 15.8949 3.66025C17.5066 3.4594 14.9472 -0.362783 12.5209 0.0280265ZM4.88443 0.0425457C3.8471 0.191973 2.99618 0.836263 2.39582 1.66991C0.931222 3.70805 2.39885 4.00508 2.81402 3.38923C3.38109 2.54832 3.68007 1.6197 4.86203 1.35956C5.35225 1.25188 6.24311 1.50838 6.19954 0.639649C6.16322 -0.0754229 5.40248 -0.0318653 4.88382 0.0431507L4.88443 0.0425457Z" fill="#222327"/>
</svg>
